<svg width="40" height="38" viewBox="0 0 40 38" fill="none" xmlns="http://www.w3.org/2000/svg">
<path d="M10 37.3333V19C3.27333 19 0 23.525 0 28.1667C0 32.845 3.325 37.3333 10 37.3333ZM40 28.1667C40 23.525 36.7267 19 30 19V37.3333C36.675 37.3333 40 32.845 40 28.1667ZM20 5.63C13.535 5.61667 8.565 9.545 7.095 15.955C5.84333 16.1967 4.63 16.5967 3.49333 17.1483C4.54167 7.98 10.6917 0.666672 20 0.666672C29.315 0.666672 35.4833 7.98167 36.5267 17.16C35.3867 16.6033 34.1683 16.2017 32.9117 15.9583C31.4433 9.54167 26.4667 5.61667 20 5.63Z" fill="#FFD26D"/>
</svg>
