<svg width="40" height="24" viewBox="0 0 40 24" fill="none" xmlns="http://www.w3.org/2000/svg">
<path d="M21.9367 23.6567C22.9517 23.6567 23.3667 22.98 23.355 22.1317C23.3033 18.9367 24.545 17.2167 26.7867 19.4583C29.2667 21.9383 29.78 23.6567 32.7917 23.6567H38.125C39.4717 23.6567 40.0017 23.2233 40.0017 22.5433C40.0017 21.105 37.6333 18.5667 35.6267 16.7033C32.8167 14.095 32.685 14.0333 35.105 10.8933C38.1067 6.995 42.0333 2 38.56 2H31.925C30.6383 2 30.545 2.725 30.0867 3.805C28.4283 7.71666 25.2767 12.7833 24.08 12.0083C22.8283 11.2 23.4017 7.99833 23.4967 3.24C23.5217 1.98333 23.515 1.12166 21.595 0.674995C20.5467 0.433328 19.5267 0.333328 18.58 0.333328C14.7917 0.333328 12.1783 1.92166 13.6633 2.19833C16.2817 2.68666 16.03 8.35166 15.42 10.7983C14.3567 15.0583 10.36 7.425 8.695 3.62333C8.29333 2.71 8.17 2 6.73667 2H1.31167C0.491667 2 0 2.26666 0 2.85999C0 3.86333 4.93333 14.06 9.64333 19.1433C14.2367 24.1017 18.7767 23.6567 21.9367 23.6567V23.6567Z" fill="#FF7E6D"/>
</svg>
